<svg width="100" height="32" viewBox="0 0 100 32" fill="none" xmlns="http://www.w3.org/2000/svg">
<g clip-path="url(#clip0_8_905)">
<path d="M9.59623 10.162C9.01719 10.2504 8.72737 10.294 8.14833 10.3825C7.9105 7.39343 9.58429 5.1209 12.5076 4.4588C12.5954 5.03784 12.6396 5.32766 12.7281 5.9067C10.6061 6.45467 9.48805 7.96411 9.59681 10.162H9.59623Z" fill="#19FB9B"/>
<path d="M27.5266 18.0223C27.5266 18.0223 27.3395 16.1752 25.7381 15.9529C24.136 15.7307 23.793 16.3037 23.793 16.3037C23.793 16.3037 24.9935 17.457 25.321 18.9695C25.6484 20.4813 25.1184 20.8398 24.5573 20.3725C23.9956 19.9047 23.4817 18.9695 22.5931 16.3975C21.7045 13.825 19.9895 10.9101 15.9524 9.28891C13.6487 8.36388 10.9501 8.17028 8.42004 8.74752C8.28081 8.73796 8.13979 8.7284 7.99638 8.71884C4.00763 8.46189 2.13307 8.66685 1.66339 8.73318C1.59347 8.74334 1.52356 8.74692 1.45304 8.75289C1.12498 8.78038 0.807082 9.08395 0.713265 9.47356L0.00514494 12.4124C-0.171137 13.1456 -0.0564036 13.8555 0.274647 14.3772L0.272853 14.376L0.727008 15.1235C0.631995 15.3865 0.547727 15.6542 0.476019 15.9273C0.339774 16.4477 0.247163 16.985 0.20354 17.5329C1.78051 16.7609 4.86871 15.6315 9.55063 17.374C16.3007 19.8855 16.6748 23.1279 21.5695 24.3888C24.3768 25.1118 25.808 24.1659 26.5777 23.0102C26.9458 22.2937 27.2039 21.4954 27.3162 20.6062C27.3162 20.6062 28.7426 20.4777 29.8063 19.8347C30.8705 19.1918 31.5601 18.6067 31.9229 18.5016C31.9229 18.5016 30.9052 16.6079 27.5266 18.0223Z" fill="#19FB9B"/>
<path d="M15.7851 5.01021C15.7987 3.50503 14.5896 2.27374 13.0844 2.26008C11.5792 2.24642 10.348 3.45556 10.3343 4.96074C10.3206 6.46593 11.5298 7.69719 13.035 7.71085C14.5401 7.72451 15.7714 6.5154 15.7851 5.01021Z" fill="#19FB9B"/>
<path d="M14.3025 4.99677C14.3087 4.31067 13.7576 3.74943 13.0715 3.74321C12.3854 3.73698 11.8241 4.28812 11.8179 4.97422C11.8117 5.66031 12.3628 6.22155 13.0489 6.22778C13.735 6.23401 14.2963 5.68286 14.3025 4.99677Z" fill="white"/>
<path d="M26.5779 23.0102C25.0302 26.0255 21.541 27.5947 18.8209 28.4008C15.4536 29.3981 7.72889 29.8989 3.23222 25.2827C0.845549 22.8327 0.00119412 20.0654 0.203769 17.5329C1.78074 16.7608 4.86834 15.6314 9.55085 17.3739C16.3009 19.8855 16.675 23.1279 21.5697 24.3888C24.3771 25.1118 25.8082 24.1659 26.5779 23.0102Z" fill="#917DEA"/>
<path d="M1.08974 12.4786L1.00667 12.8245C0.914644 13.2082 0.918239 13.5841 1.0025 13.9175C1.03417 14.0424 1.07719 14.1613 1.13097 14.2724C1.16144 14.3358 1.19489 14.3973 1.23254 14.4553C1.24449 14.475 1.25704 14.4929 1.26959 14.5109C1.32935 14.5975 1.39687 14.677 1.47156 14.7475C1.58629 14.8581 1.71837 14.9489 1.86418 15.0152C1.94784 15.0535 2.03687 15.0839 2.12949 15.1054L3.14057 14.8945L3.36466 14.8479L3.60607 14.7977L1.44408 11.0079L1.08974 12.4786Z" fill="#260246"/>
<path d="M2.48242 9.48415L5.3561 14.5192C5.55449 14.5061 5.75408 14.5001 5.95367 14.5013C6.15445 14.5019 6.35645 14.5103 6.55902 14.5258L3.63872 9.40826C3.09374 9.42798 2.71547 9.45965 2.48242 9.48415Z" fill="#260246"/>
<path d="M16.5484 10.7026C16.506 10.699 16.4642 10.6912 16.4247 10.6793C16.4008 10.6715 14.1426 9.98672 9.09083 9.58455C8.91514 9.57081 8.73586 9.55706 8.5536 9.54391C8.52432 9.54152 8.49566 9.53974 8.46697 9.53794C8.28292 9.5248 8.10366 9.51224 7.92917 9.50149C7.57302 9.47878 7.23598 9.46026 6.91628 9.44532C6.81768 9.44054 6.72147 9.43636 6.62646 9.43277C6.40177 9.42321 6.18666 9.41543 5.9811 9.40886C5.79645 9.40348 5.61957 9.3993 5.44986 9.39631C5.24549 9.39273 5.05188 9.39094 4.86843 9.39035H4.83496L7.87837 14.7242C8.81236 14.9363 9.72782 15.2997 10.6039 15.8136L12.9027 17.1623C14.2861 17.3792 15.7029 16.4607 16.0327 15.0702L16.9458 11.2183C17.0073 10.9572 16.8287 10.7253 16.5484 10.7026Z" fill="#260246"/>
<path d="M2.19151 9.52209C2.16402 9.52747 2.13713 9.52867 2.11083 9.52688C1.94232 9.51314 1.76665 9.66551 1.71824 9.86629L1.44336 11.0082L3.60536 14.798L4.1593 14.6821C4.53039 14.605 4.90566 14.5518 5.28452 14.5243C5.30783 14.5225 5.33171 14.5207 5.35501 14.5195L2.48134 9.48444C2.28773 9.50535 2.1951 9.5209 2.19151 9.52209Z" fill="white"/>
<path d="M4.8346 9.39064C4.62426 9.39004 4.42767 9.39062 4.24422 9.39361C4.15578 9.39481 4.07092 9.39661 3.98906 9.3984C3.86476 9.40139 3.74765 9.40497 3.6377 9.40855L6.558 14.5261C6.81734 14.5446 7.07845 14.5757 7.33959 14.6187C7.51946 14.6486 7.69874 14.6839 7.87801 14.7245L4.8346 9.39064Z" fill="white"/>
</g>
<g clip-path="url(#clip1_8_905)">
<path d="M39.4096 14.5055L36.001 3.71014H38.3916L40.6127 10.9272L42.9569 3.71014H45.2856L47.5988 10.9272L49.8346 3.71014H52.2098L48.7864 14.5055H46.381L44.0987 7.14903L41.801 14.5055H39.4096Z" fill="white"/>
<path d="M41.8 17.6952L44.0977 25.0516L46.38 17.6952H48.7855L52.2088 28.4905H49.8337L47.5979 21.2734L45.2846 28.4905H42.9559L40.6117 21.2734L38.3907 28.4905H36L39.4086 17.6952H41.8Z" fill="white"/>
<path d="M53.3662 14.5055V3.71014H55.6949V7.96633H60.1982V3.71014H62.5269V14.5055H60.1982V10.1564H55.6949V14.5055H53.3662Z" fill="white"/>
<path d="M63.6826 14.5055L68.3091 3.71014H70.7145L75.341 14.5055H72.7807L71.8712 12.4084H67.1525L66.2577 14.5055H63.6826ZM67.9085 10.357H71.1165L69.5284 6.5943H69.4974L67.9085 10.357Z" fill="white"/>
<path d="M76.499 14.5055V3.71014H78.8277V12.3619H82.7144V14.5055H76.499Z" fill="white"/>
<path d="M84.2402 14.5055V3.71014H90.2704V5.85372H86.569V7.96633H90.0853V10.1099H86.569V12.3612H90.3472V14.5048H84.2402V14.5055Z" fill="white"/>
<path d="M96.0383 7.88961C97.6884 8.32114 99.6778 8.90753 99.6778 11.344C99.6778 13.3024 98.0587 14.7061 95.6835 14.7061C93.9869 14.7061 92.7071 14.0739 91.6582 12.8709L93.2618 11.3749C93.9095 12.1 94.5881 12.5625 95.6828 12.5625C96.8394 12.5625 97.3484 12.0691 97.3484 11.4059C97.3484 10.6196 96.2994 10.3725 95.0971 10.0332C93.5244 9.60165 91.9046 8.86108 91.9046 6.67103C91.9046 4.80482 93.416 3.50951 95.5906 3.50951C97.3026 3.50951 98.3508 4.12618 99.3533 5.12863L97.7496 6.57811C97.2252 6.03816 96.5156 5.6531 95.5751 5.6531C94.7113 5.6531 94.2333 6.02337 94.2333 6.62456C94.2333 7.33416 95.0358 7.62703 96.0383 7.88961Z" fill="white"/>
<path d="M52.1162 28.4905L56.7427 17.6952H59.1481L63.7746 28.4905H61.2143L60.3048 26.3934H55.5854L54.6906 28.4905H52.1162ZM56.3421 24.342H59.5494L57.9612 20.5793H57.9303L56.3421 24.342Z" fill="white"/>
<path d="M70.8544 28.4905L68.0167 24.6039H66.8601V28.4905H64.5469V17.6952H68.8186C70.4841 17.6952 72.2729 18.8363 72.2729 21.1495C72.2729 22.7074 71.4556 23.7401 70.4067 24.2491L73.4753 28.4898H70.8544V28.4905ZM66.8601 22.5835H68.4483C69.4197 22.5835 69.9442 21.9823 69.9442 21.1495C69.9442 20.3167 69.4197 19.7156 68.4483 19.7156H66.8601V22.5835Z" fill="white"/>
<path d="M76.5603 23.4628V28.4905H74.2471V17.6952H76.5603V22.3216L80.1843 17.6952H82.9143L78.889 22.8925L83.0685 28.4905H80.354L76.5603 23.4628Z" fill="white"/>
<path d="M84.2402 28.4905V17.6952H90.2704V19.8387H86.569V21.9514H90.0853V24.0949H86.569V26.3462H90.3472V28.4898H84.2402V28.4905Z" fill="white"/>
<path d="M94.5111 28.4905V19.8387H91.627V17.6952H99.7078V19.8387H96.8236V28.4905H94.5111Z" fill="white"/>
</g>
<defs>
<clipPath id="clip0_8_905">
<rect width="32" height="32" fill="white"/>
</clipPath>
<clipPath id="clip1_8_905">
<rect width="63.7076" height="24.981" fill="white" transform="translate(36 3.50951)"/>
</clipPath>
</defs>
</svg>